<?xml version="1.0" standalone="no"?>
<!DOCTYPE svg PUBLIC "-//W3C//DTD SVG 20010904//EN"
 "http://www.w3.org/TR/2001/REC-SVG-20010904/DTD/svg10.dtd">
<svg version="1.0" xmlns="http://www.w3.org/2000/svg"
 width="226.000000pt" height="229.000000pt" viewBox="0 0 226.000000 229.000000"
 preserveAspectRatio="xMidYMid meet">

<g transform="translate(0.000000,229.000000) scale(0.100000,-0.100000)"
fill="#000000" stroke="none">
<path d="M1325 2268 c-12 -38 -42 -198 -37 -202 13 -13 38 -4 47 16 15 33 31
32 45 -2 12 -28 55 -58 67 -46 2 2 -7 26 -20 52 l-25 49 40 26 39 26 -26 7
c-18 5 -37 0 -61 -15 -19 -12 -37 -19 -40 -16 -3 3 -1 22 5 44 16 57 14 73 -9
73 -11 0 -23 -6 -25 -12z"/>
<path d="M1112 2210 c-33 -31 -30 -92 4 -119 41 -32 124 -23 124 13 0 17 -27
29 -35 16 -9 -14 -49 -12 -63 2 -33 33 10 86 54 66 32 -15 54 3 34 27 -19 23
-91 20 -118 -5z"/>
<path d="M897 2194 c-22 -12 -26 -18 -17 -29 8 -10 17 -10 39 -2 15 5 37 7 47
3 20 -9 22 -8 -53 -37 -17 -6 -23 -17 -23 -39 0 -41 37 -60 78 -40 15 7 37 12
50 11 17 -2 22 3 22 21 0 36 -19 96 -36 113 -20 19 -71 19 -107 -1z m91 -91
c-4 -23 -58 -31 -58 -9 0 15 14 24 43 25 12 1 17 -5 15 -16z"/>
<path d="M683 2175 c-29 -13 -53 -27 -53 -32 0 -14 75 -183 82 -183 3 0 36 13
72 30 68 30 88 55 78 93 -3 10 -16 24 -29 30 -15 6 -22 16 -18 25 3 8 -2 25
-10 38 -20 31 -54 30 -122 -1z m85 -37 c2 -11 -8 -23 -27 -32 -38 -20 -38 -20
-51 4 -9 16 -6 22 17 34 34 19 57 16 61 -6z m49 -75 c3 -7 -15 -22 -38 -33
-42 -22 -58 -17 -59 16 0 28 89 43 97 17z"/>
<path d="M1527 2128 c-25 -20 -38 -64 -27 -92 11 -31 49 -56 85 -59 32 -2 46
20 18 29 -39 13 -63 28 -63 41 0 17 0 17 55 -7 26 -11 51 -20 56 -20 18 0 10
79 -11 100 -23 23 -87 27 -113 8z m83 -33 c21 -25 7 -34 -30 -19 -27 12 -32
17 -20 24 21 14 36 12 50 -5z"/>
<path d="M1696 2005 c-46 -63 -47 -67 -30 -80 17 -13 21 -11 39 13 40 54 54
63 75 52 27 -14 25 -33 -6 -80 -26 -39 -25 -60 1 -60 20 0 75 84 75 114 0 23
-40 66 -62 66 -5 0 -17 9 -27 21 -16 20 -17 19 -65 -46z"/>
<path d="M346 1953 c-5 -13 1 -24 20 -39 l27 -22 -23 -7 c-29 -9 -53 -66 -41
-99 23 -58 95 -74 137 -28 14 15 34 36 45 48 l21 21 -77 69 c-84 76 -99 84
-109 57z m100 -114 c19 -22 13 -43 -19 -63 -19 -12 -57 17 -57 44 0 40 46 52
76 19z"/>
<path d="M1852 1877 c-36 -38 -29 -79 21 -131 l43 -45 76 67 c79 69 86 80 66
100 -9 9 -18 6 -40 -15 -20 -19 -28 -22 -28 -12 0 8 -9 25 -20 37 -29 31 -89
30 -118 -1z m96 -29 c19 -19 14 -45 -10 -62 -12 -9 -26 -16 -30 -16 -12 0 -38
31 -38 45 0 35 53 58 78 33z"/>
<path d="M240 1720 c-11 -11 -20 -32 -20 -46 0 -14 -4 -23 -9 -19 -6 3 -15 -3
-20 -14 -10 -17 -4 -24 52 -57 34 -20 65 -39 69 -41 4 -2 12 5 18 16 9 18 5
24 -30 46 -49 31 -59 51 -36 73 16 16 20 15 66 -10 49 -28 50 -28 61 -7 6 11
9 22 7 23 -31 23 -101 56 -117 56 -12 0 -30 -9 -41 -20z"/>
<path d="M2117 1550 c-49 -16 -91 -30 -93 -32 -10 -10 39 -128 62 -149 31 -29
88 -32 127 -6 41 27 50 76 26 153 -11 35 -23 64 -27 63 -4 0 -47 -14 -95 -29z
m87 -46 c3 -9 6 -31 6 -50 0 -63 -80 -85 -114 -31 -29 45 -25 59 29 78 63 22
71 23 79 3z"/>
<path d="M154 1522 c-19 -12 -34 -49 -34 -81 0 -25 4 -31 21 -31 11 0 18 4 14
10 -9 15 5 58 22 65 22 8 23 5 10 -42 -8 -32 -8 -45 2 -57 17 -20 55 -21 71
-1 11 13 28 66 33 104 4 26 -110 53 -139 33z m96 -76 c0 -14 -5 -28 -11 -32
-17 -10 -32 12 -24 35 9 29 35 27 35 -3z"/>
<path d="M2134 1316 c-17 -8 -34 -21 -38 -31 -18 -49 8 -135 34 -109 7 7 8 19
2 35 -10 30 -4 61 11 56 7 -2 13 -27 15 -55 3 -47 5 -52 26 -52 12 0 32 10 44
23 39 42 22 118 -31 137 -16 5 -30 10 -31 10 -1 -1 -15 -7 -32 -14z m76 -51
c11 -13 11 -21 0 -43 -12 -25 -13 -26 -21 -7 -11 27 -11 65 0 65 5 0 14 -7 21
-15z"/>
<path d="M103 1117 c-90 -9 -93 -11 -93 -35 0 -23 3 -24 38 -19 l37 7 -3 -39
c-3 -30 1 -44 17 -60 30 -30 90 -28 120 3 21 22 22 30 16 90 -6 53 -11 66 -24
64 -9 0 -58 -5 -108 -11z m78 -47 c26 -14 25 -56 -2 -70 -25 -14 -44 -8 -59
19 -8 17 -7 24 10 41 23 23 25 23 51 10z"/>
<path d="M2173 1092 c-76 -23 -83 -27 -83 -51 0 -22 11 -32 70 -63 38 -21 72
-38 75 -38 3 0 5 9 5 20 0 13 -12 28 -31 38 -66 37 -67 39 -19 53 52 14 73 31
68 51 -2 12 -17 10 -85 -10z"/>
<path d="M182 913 c-24 -8 -50 -26 -59 -40 -15 -22 -15 -27 0 -59 10 -19 17
-43 17 -54 0 -30 13 -31 86 -7 70 24 80 32 65 55 -6 10 -17 10 -53 1 -52 -14
-78 -8 -78 19 0 25 15 37 66 52 33 10 40 16 37 31 -6 22 -23 23 -81 2z"/>
<path d="M2069 881 c-37 -38 -42 -101 -8 -101 15 0 19 5 15 15 -8 22 11 65 29
65 18 0 18 2 0 -50 -22 -62 -20 -70 18 -70 75 0 110 98 53 146 -37 32 -71 30
-107 -5z m101 -60 c0 -18 -18 -41 -32 -41 -11 0 -10 13 2 45 11 28 30 26 30
-4z"/>
<path d="M294 717 c-3 -9 4 -25 15 -36 21 -21 29 -61 12 -61 -5 0 -23 23 -39
52 l-30 51 -26 -26 c-29 -30 -33 -55 -11 -96 29 -57 103 -61 139 -9 22 31 20
59 -6 98 -27 39 -46 48 -54 27z m-19 -88 c16 -30 16 -31 -7 -27 -17 2 -24 11
-26 31 -4 36 14 34 33 -4z"/>
<path d="M1966 673 c-4 -9 -1 -20 6 -25 45 -29 169 -98 176 -98 8 0 22 22 22
35 0 5 -179 105 -189 105 -5 0 -12 -8 -15 -17z"/>
<path d="M417 544 c-3 -3 -1 -15 6 -25 10 -16 7 -23 -15 -46 -22 -22 -29 -24
-42 -14 -21 17 -37 5 -30 -24 3 -12 1 -26 -6 -30 -8 -5 -6 -12 6 -26 9 -10 22
-15 28 -11 6 4 20 7 31 7 14 0 19 6 18 19 -1 10 12 30 27 43 16 13 32 33 35
44 11 35 -35 86 -58 63z"/>
<path d="M1859 521 c-35 -35 -38 -77 -8 -115 44 -56 149 -12 149 64 0 74 -86
105 -141 51z m83 -28 c21 -19 23 -44 6 -61 -17 -17 -38 -15 -60 5 -22 20 -23
37 -2 57 20 20 33 20 56 -1z"/>
<path d="M1717 466 c-16 -13 -16 -15 3 -39 25 -31 25 -37 1 -37 -25 0 -61 -45
-61 -76 0 -12 12 -36 26 -53 33 -40 69 -40 119 -1 21 17 42 30 46 30 19 0 7
25 -52 106 -33 46 -61 84 -62 84 -1 0 -10 -7 -20 -14z m61 -118 c17 -17 15
-53 -3 -68 -26 -21 -65 3 -65 39 0 38 41 56 68 29z"/>
<path d="M511 391 c-38 -59 -40 -94 -6 -118 14 -10 35 -26 47 -36 11 -9 25
-17 29 -17 5 0 29 28 54 62 41 56 43 62 27 74 -15 11 -22 6 -59 -34 l-41 -47
-23 22 -23 22 32 45 c38 52 38 52 13 65 -16 9 -24 4 -50 -38z"/>
<path d="M698 286 c-25 -19 -39 -62 -29 -88 19 -51 81 -79 123 -57 46 25 59
63 37 112 -19 43 -94 62 -131 33z m92 -45 c20 -39 -22 -82 -60 -61 -22 12 -25
31 -10 61 14 25 56 25 70 0z"/>
<path d="M1540 293 c-19 -7 -60 -44 -60 -55 0 -13 29 -9 56 8 18 12 30 14 46
7 20 -9 16 -12 -35 -33 -31 -13 -57 -28 -57 -32 0 -17 49 -58 70 -58 12 0 34
7 49 15 89 46 25 182 -69 148z m66 -108 c-6 -15 -47 -21 -60 -8 -4 4 8 15 26
24 33 17 45 11 34 -16z"/>
<path d="M1367 233 c-18 -5 -18 -23 -1 -84 5 -17 -15 -44 -36 -51 -6 -2 -8
-11 -4 -21 4 -12 12 -16 23 -11 14 5 28 8 67 13 7 1 6 26 -5 81 -8 44 -17 79
-20 79 -3 -1 -14 -3 -24 -6z"/>
<path d="M954 189 c-8 -45 -26 -69 -55 -69 -13 0 -19 -7 -19 -21 0 -17 5 -20
25 -17 14 3 25 1 25 -3 0 -5 10 -9 23 -9 20 0 25 8 38 75 14 64 14 75 2 80
-27 10 -33 5 -39 -36z"/>
<path d="M1188 173 c-3 -38 -3 -38 -50 -41 -33 -2 -48 -8 -48 -17 0 -9 15 -15
48 -17 43 -3 47 -5 50 -30 3 -28 2 -28 -52 -28 -49 0 -56 -2 -56 -20 0 -18 7
-20 75 -20 l75 0 0 105 c0 97 -1 105 -19 105 -16 0 -20 -8 -23 -37z"/>
</g>
</svg>
